<?xml version="1.0" encoding="utf-8"?>
<!-- Generator: Adobe Illustrator 19.0.0, SVG Export Plug-In . SVG Version: 6.00 Build 0)  -->
<svg version="1.1" id="Layer_1" xmlns="http://www.w3.org/2000/svg" xmlns:xlink="http://www.w3.org/1999/xlink" x="0px" y="0px"
	 viewBox="-300 235 358 92" style="enable-background:new -300 235 358 92;" xml:space="preserve">
<style type="text/css">
	.st0{enable-background:new    ;}
	.st1{clip-path:url(#SVGID_2_);fill:#DD731C;}
	.st2{clip-path:url(#SVGID_2_);fill:#DD741C;}
	.st3{clip-path:url(#SVGID_2_);fill:#DE751B;}
	.st4{clip-path:url(#SVGID_2_);fill:#DE761B;}
	.st5{clip-path:url(#SVGID_2_);fill:#DE771B;}
	.st6{clip-path:url(#SVGID_2_);fill:#DF781B;}
	.st7{clip-path:url(#SVGID_2_);fill:#DF791A;}
	.st8{clip-path:url(#SVGID_2_);fill:#E07A1A;}
	.st9{clip-path:url(#SVGID_2_);fill:#E07B1A;}
	.st10{clip-path:url(#SVGID_2_);fill:#E07C19;}
	.st11{clip-path:url(#SVGID_2_);fill:#E17D19;}
	.st12{clip-path:url(#SVGID_2_);fill:#E17E19;}
	.st13{clip-path:url(#SVGID_2_);fill:#E17F18;}
	.st14{clip-path:url(#SVGID_2_);fill:#E28018;}
	.st15{clip-path:url(#SVGID_2_);fill:#E28118;}
	.st16{clip-path:url(#SVGID_2_);fill:#E38218;}
	.st17{clip-path:url(#SVGID_2_);fill:#E38317;}
	.st18{clip-path:url(#SVGID_2_);fill:#E38417;}
	.st19{clip-path:url(#SVGID_2_);fill:#E48517;}
	.st20{clip-path:url(#SVGID_2_);fill:#E48616;}
	.st21{clip-path:url(#SVGID_2_);fill:#E48716;}
	.st22{clip-path:url(#SVGID_2_);fill:#E58816;}
	.st23{clip-path:url(#SVGID_2_);fill:#E58915;}
	.st24{clip-path:url(#SVGID_2_);fill:#E68A15;}
	.st25{clip-path:url(#SVGID_2_);fill:#E68B15;}
	.st26{clip-path:url(#SVGID_2_);fill:#E68C15;}
	.st27{clip-path:url(#SVGID_2_);fill:#E78D14;}
	.st28{clip-path:url(#SVGID_2_);fill:#E78E14;}
	.st29{clip-path:url(#SVGID_2_);fill:#E78F14;}
	.st30{clip-path:url(#SVGID_2_);fill:#E89013;}
	.st31{clip-path:url(#SVGID_2_);fill:#E89113;}
	.st32{clip-path:url(#SVGID_2_);fill:#E99213;}
	.st33{clip-path:url(#SVGID_2_);fill:#E99313;}
	.st34{clip-path:url(#SVGID_2_);fill:#E99412;}
	.st35{clip-path:url(#SVGID_2_);fill:#EA9512;}
	.st36{clip-path:url(#SVGID_2_);fill:#EA9612;}
	.st37{clip-path:url(#SVGID_2_);fill:#EA9711;}
	.st38{clip-path:url(#SVGID_2_);fill:#EB9811;}
	.st39{clip-path:url(#SVGID_2_);fill:#EB9911;}
	.st40{clip-path:url(#SVGID_2_);fill:#EC9A10;}
	.st41{clip-path:url(#SVGID_2_);fill:#EC9B10;}
	.st42{clip-path:url(#SVGID_2_);fill:#EC9C10;}
	.st43{clip-path:url(#SVGID_2_);fill:#ED9D10;}
	.st44{clip-path:url(#SVGID_2_);fill:#ED9E0F;}
	.st45{clip-path:url(#SVGID_2_);fill:#ED9F0F;}
	.st46{clip-path:url(#SVGID_2_);fill:#EEA00F;}
	.st47{clip-path:url(#SVGID_2_);fill:#EEA20E;}
	.st48{clip-path:url(#SVGID_2_);fill:#EFA30E;}
	.st49{clip-path:url(#SVGID_2_);fill:#EFA40E;}
	.st50{clip-path:url(#SVGID_2_);fill:#EFA50D;}
	.st51{clip-path:url(#SVGID_2_);fill:#F0A60D;}
	.st52{clip-path:url(#SVGID_2_);fill:#F0A70D;}
	.st53{clip-path:url(#SVGID_2_);fill:#F0A80D;}
	.st54{clip-path:url(#SVGID_2_);fill:#F1A90C;}
	.st55{clip-path:url(#SVGID_2_);fill:#F1AA0C;}
	.st56{clip-path:url(#SVGID_2_);fill:#F2AB0C;}
	.st57{clip-path:url(#SVGID_2_);fill:#F2AC0B;}
	.st58{clip-path:url(#SVGID_2_);fill:#F2AD0B;}
	.st59{clip-path:url(#SVGID_2_);fill:#F3AE0B;}
	.st60{clip-path:url(#SVGID_2_);fill:#F3AF0A;}
	.st61{clip-path:url(#SVGID_2_);fill:#F3B00A;}
	.st62{clip-path:url(#SVGID_2_);fill:#F4B10A;}
	.st63{clip-path:url(#SVGID_2_);fill:#F4B20A;}
	.st64{clip-path:url(#SVGID_2_);fill:#F5B309;}
	.st65{clip-path:url(#SVGID_2_);fill:#F5B409;}
	.st66{clip-path:url(#SVGID_2_);fill:#F5B509;}
	.st67{clip-path:url(#SVGID_2_);fill:#F6B608;}
	.st68{clip-path:url(#SVGID_2_);fill:#F6B708;}
	.st69{clip-path:url(#SVGID_2_);fill:#F6B808;}
	.st70{clip-path:url(#SVGID_2_);fill:#F7B908;}
	.st71{clip-path:url(#SVGID_2_);fill:#F7BA07;}
	.st72{clip-path:url(#SVGID_2_);fill:#F8BB07;}
	.st73{clip-path:url(#SVGID_2_);fill:#F8BC07;}
	.st74{clip-path:url(#SVGID_2_);fill:#F8BD06;}
	.st75{clip-path:url(#SVGID_2_);fill:#F9BE06;}
	.st76{clip-path:url(#SVGID_2_);fill:#F9BF06;}
	.st77{clip-path:url(#SVGID_2_);fill:#F9C005;}
	.st78{clip-path:url(#SVGID_2_);fill:#FAC105;}
	.st79{clip-path:url(#SVGID_2_);fill:#FAC205;}
	.st80{clip-path:url(#SVGID_2_);fill:#FBC305;}
	.st81{clip-path:url(#SVGID_2_);fill:#FBC404;}
	.st82{clip-path:url(#SVGID_2_);fill:#FBC504;}
	.st83{clip-path:url(#SVGID_2_);fill:#FCC604;}
	.st84{clip-path:url(#SVGID_2_);fill:#FCC703;}
	.st85{clip-path:url(#SVGID_2_);fill:#FCC803;}
	.st86{clip-path:url(#SVGID_2_);fill:#FDC903;}
	.st87{clip-path:url(#SVGID_2_);fill:#FDCA02;}
	.st88{clip-path:url(#SVGID_2_);fill:#FECB02;}
	.st89{clip-path:url(#SVGID_2_);fill:#FECC02;}
	.st90{clip-path:url(#SVGID_2_);fill:#FECD02;}
	.st91{clip-path:url(#SVGID_2_);fill:#FFCE01;}
	.st92{clip-path:url(#SVGID_2_);fill:#FFCF01;}
</style>
<title>A5 Copy</title>
<desc>Created with Sketch.</desc>
<g id="Page-1">
	<g id="A5-Copy">
		<g id="Group-11-Copy-8" transform="translate(38.000000, 30.000000)">
			<g id="Group-9">
				<g class="st0">
					<g>
						<path d="M-297.3,260h-1.4l2.8-16.8h5.9c2.6,0,4,1.6,4,3.8c0,3.3-1.8,5.4-4.9,5.5h-0.4l3.3,7.4h-1.5l-3.2-7.4h-3.2L-297.3,260z
							 M-291.2,251.4c2,0,3.2-1.1,3.5-2.8l0.1-0.9c0-0.2,0.1-0.5,0.1-0.8c0-1.4-0.9-2.4-2.7-2.4h-4.5l-1.2,6.9H-291.2z"/>
					</g>
					<g>
						<path d="M-274.6,260l-0.7-5.1h-6.4l-2.4,5.1h-1.5l8.1-16.8h1.9l2.5,16.8H-274.6z M-276.8,244.7h-0.2l-4.2,8.9h5.7
							L-276.8,244.7z"/>
					</g>
					<g>
						<path d="M-269.9,260l2.8-16.8h5.9c2.6,0,4,1.6,4,3.8c0,3.4-1.9,5.6-5.2,5.6h-4.7l-1.2,7.3H-269.9z M-267.1,251.4h4.7
							c2.1,0,3.2-1.2,3.5-2.8l0.1-0.9c0-0.2,0.1-0.5,0.1-0.8c0-1.4-0.9-2.4-2.7-2.4h-4.5L-267.1,251.4z"/>
					</g>
					<g>
						<path d="M-255.7,260l0.2-1.2h4.4l2.4-14.4h-4.4l0.2-1.2h10.2l-0.2,1.2h-4.4l-2.4,14.4h4.4l-0.2,1.2H-255.7z"/>
					</g>
					<g>
						<path d="M-238.2,243.2h4c3.3,0,5.2,2.1,5.2,5.4c0,7-2.5,11.3-7.4,11.3h-4.7L-238.2,243.2z M-236.2,258.8c2.8,0,4.7-2,5.4-5.8
							l0.3-1.9c0.1-0.7,0.2-1.6,0.2-2.3c0-2.7-1.4-4.2-4-4.2h-2.7l-2.4,14.3H-236.2z"/>
					</g>
				</g>
				<g>
				</g>
				<g class="st0">
					<g>
						<path d="M-212.4,260l2.8-16.8h6c2.8,0,4.1,1.6,4.1,3.9c0,3.6-2,5.7-5.5,5.7h-4.2l-1.2,7.1H-212.4z M-209,251.1h4.1
							c1.8,0,2.8-0.9,3.1-2.4l0.1-0.9c0-0.3,0.1-0.6,0.1-0.9c0-1.3-0.9-2-2.3-2h-4.1L-209,251.1z"/>
					</g>
					<g>
						<path d="M-196,260h-2l2.8-16.8h6c2.8,0,4.1,1.6,4.1,3.9c0,3.3-1.9,5.4-5,5.6l3,7.2h-2.1l-2.9-7.2h-2.7L-196,260z
							 M-190.4,251.1c1.6,0,2.8-0.8,3.1-2.4l0.1-0.9c0-0.3,0.1-0.6,0.1-0.9c0-1.3-0.9-2-2.3-2h-4.1l-1,6.2H-190.4z"/>
					</g>
					<g>
						<path d="M-183.3,254.6c0-4.2,1.4-11.6,7.4-11.6c3.3,0,4.8,2,4.8,5.7c0,4.2-1.4,11.6-7.4,11.6
							C-181.8,260.3-183.3,258.2-183.3,254.6z M-173.6,253l0.5-2.7c0.1-0.7,0.2-1.4,0.2-2c0-2.3-0.8-3.6-3-3.6
							c-2.6,0-4.2,2.1-4.7,5.6l-0.5,2.7c-0.1,0.7-0.2,1.4-0.2,2c0,2.3,0.8,3.6,3,3.6C-175.8,258.6-174.2,256.4-173.6,253z"/>
					</g>
					<g>
						<path d="M-160.7,245l-2.5,15h-2l2.5-15h-5.6l0.3-1.7h13.2l-0.3,1.7H-160.7z"/>
					</g>
					<g>
						<path d="M-154.5,254.6c0-4.2,1.4-11.6,7.4-11.6c3.3,0,4.8,2,4.8,5.7c0,4.2-1.4,11.6-7.4,11.6
							C-153,260.3-154.5,258.2-154.5,254.6z M-144.8,253l0.5-2.7c0.1-0.7,0.2-1.4,0.2-2c0-2.3-0.8-3.6-3-3.6c-2.6,0-4.2,2.1-4.7,5.6
							l-0.5,2.7c-0.1,0.7-0.2,1.4-0.2,2c0,2.3,0.8,3.6,3,3.6C-147,258.6-145.4,256.4-144.8,253z"/>
					</g>
					<g>
						<path d="M-131.9,245l-2.5,15h-2l2.5-15h-5.6l0.3-1.7h13.2l-0.3,1.7H-131.9z"/>
					</g>
					<g>
						<path d="M-122,260l1.1-6.5l-4.1-10.2h2.1l1.7,4.4l1.4,3.9h0.1l2.8-3.9l3.1-4.4h2.4l-7.5,10.1l-1.1,6.7H-122z"/>
					</g>
					<g>
						<path d="M-111.6,260l2.8-16.8h6c2.8,0,4.1,1.6,4.1,3.9c0,3.6-2,5.7-5.5,5.7h-4.2l-1.2,7.1H-111.6z M-108.2,251.1h4.1
							c1.8,0,2.8-0.9,3.1-2.4l0.1-0.9c0-0.3,0.1-0.6,0.1-0.9c0-1.3-0.9-2-2.3-2h-4.1L-108.2,251.1z"/>
					</g>
					<g>
						<path d="M-97.4,260l0.3-1.6h4.2l2.3-13.6h-4.2l0.3-1.6h10.4l-0.3,1.6h-4.2l-2.3,13.6h4.2L-87,260H-97.4z"/>
					</g>
					<g>
						<path d="M-78.6,245.6h-0.2l-2.4,14.4H-83l2.8-16.8h2.9l3.2,14.4h0.2l2.4-14.4h1.8l-2.8,16.8h-2.9L-78.6,245.6z"/>
					</g>
					<g>
						<path d="M-59.4,257.6h-0.1c-0.9,1.5-1.9,2.7-4.1,2.7c-2.8,0-4.3-2.1-4.3-6c0-3.9,1.5-11.3,7.5-11.3c3.1,0,4.2,1.9,4.6,3.8
							l-1.8,0.6c-0.3-1.4-1-2.6-3-2.6c-2.7,0-4.2,2.2-4.8,5.7l-0.4,2.3c-0.1,0.7-0.1,1.5-0.1,1.9c0,2.4,0.8,4,2.9,4
							c2.3,0,3.7-1.8,4.1-4l0.2-1.3h-3.5l0.3-1.6h5.3L-58,260h-1.8L-59.4,257.6z"/>
					</g>
				</g>
				<g id="noun_437026_cc-copy" transform="translate(258.000000, 8.000000)">
					<g id="Shape">
						<g>
							<defs>
								<path id="SVGID_1_" d="M-276.2,243.5l-11.4-8.4c-0.2-0.1-0.4-0.1-0.6,0c-0.2,0.1-0.3,0.3-0.3,0.5v7.2l-10.5-7.7
									c-0.2-0.1-0.4-0.1-0.6,0c-0.2,0.1-0.3,0.3-0.3,0.5v16.8c0,0.2,0.1,0.4,0.3,0.5c0.1,0,0.2,0.1,0.3,0.1c0.1,0,0.2,0,0.3-0.1
									l10.5-7.7v7.2c0,0.2,0.1,0.4,0.3,0.5c0.1,0,0.2,0.1,0.3,0.1c0.1,0,0.2,0,0.3-0.1l11.4-8.4c0.2-0.1,0.2-0.3,0.2-0.5
									C-276,243.8-276.1,243.6-276.2,243.5z"/>
							</defs>
							<clipPath id="SVGID_2_">
								<use xlink:href="#SVGID_1_"  style="overflow:visible;"/>
							</clipPath>
							<path class="st1" d="M-300,235v18V235z"/>
							<rect x="-300" y="235" class="st1" width="0.2" height="18"/>
							<rect x="-299.8" y="235" class="st2" width="0.2" height="18"/>
							<rect x="-299.5" y="235" class="st3" width="0.2" height="18"/>
							<rect x="-299.3" y="235" class="st4" width="0.2" height="18"/>
							<rect x="-299" y="235" class="st5" width="0.2" height="18"/>
							<rect x="-298.8" y="235" class="st6" width="0.2" height="18"/>
							<rect x="-298.5" y="235" class="st7" width="0.2" height="18"/>
							<rect x="-298.3" y="235" class="st8" width="0.2" height="18"/>
							<rect x="-298" y="235" class="st9" width="0.2" height="18"/>
							<rect x="-297.8" y="235" class="st10" width="0.2" height="18"/>
							<rect x="-297.5" y="235" class="st11" width="0.2" height="18"/>
							<rect x="-297.3" y="235" class="st12" width="0.2" height="18"/>
							<rect x="-297" y="235" class="st13" width="0.2" height="18"/>
							<rect x="-296.8" y="235" class="st14" width="0.2" height="18"/>
							<rect x="-296.5" y="235" class="st15" width="0.2" height="18"/>
							<rect x="-296.3" y="235" class="st16" width="0.2" height="18"/>
							<rect x="-296" y="235" class="st17" width="0.2" height="18"/>
							<rect x="-295.8" y="235" class="st18" width="0.2" height="18"/>
							<rect x="-295.5" y="235" class="st19" width="0.2" height="18"/>
							<rect x="-295.3" y="235" class="st20" width="0.2" height="18"/>
							<rect x="-295" y="235" class="st21" width="0.2" height="18"/>
							<rect x="-294.8" y="235" class="st22" width="0.2" height="18"/>
							<rect x="-294.5" y="235" class="st23" width="0.2" height="18"/>
							<rect x="-294.3" y="235" class="st24" width="0.2" height="18"/>
							<rect x="-294" y="235" class="st25" width="0.2" height="18"/>
							<rect x="-293.8" y="235" class="st26" width="0.2" height="18"/>
							<rect x="-293.5" y="235" class="st27" width="0.2" height="18"/>
							<rect x="-293.3" y="235" class="st28" width="0.2" height="18"/>
							<rect x="-293" y="235" class="st29" width="0.2" height="18"/>
							<rect x="-292.8" y="235" class="st30" width="0.2" height="18"/>
							<rect x="-292.5" y="235" class="st31" width="0.2" height="18"/>
							<rect x="-292.3" y="235" class="st32" width="0.2" height="18"/>
							<rect x="-292" y="235" class="st33" width="0.2" height="18"/>
							<rect x="-291.8" y="235" class="st34" width="0.2" height="18"/>
							<rect x="-291.5" y="235" class="st35" width="0.2" height="18"/>
							<rect x="-291.3" y="235" class="st36" width="0.2" height="18"/>
							<rect x="-291" y="235" class="st37" width="0.2" height="18"/>
							<rect x="-290.8" y="235" class="st38" width="0.2" height="18"/>
							<rect x="-290.5" y="235" class="st39" width="0.2" height="18"/>
							<rect x="-290.3" y="235" class="st40" width="0.2" height="18"/>
							<rect x="-290" y="235" class="st41" width="0.2" height="18"/>
							<rect x="-289.8" y="235" class="st42" width="0.2" height="18"/>
							<rect x="-289.5" y="235" class="st43" width="0.2" height="18"/>
							<rect x="-289.3" y="235" class="st44" width="0.2" height="18"/>
							<rect x="-289" y="235" class="st45" width="0.2" height="18"/>
							<rect x="-288.8" y="235" class="st46" width="0.2" height="18"/>
							<rect x="-288.6" y="235" class="st47" width="0.2" height="18"/>
							<rect x="-288.3" y="235" class="st48" width="0.2" height="18"/>
							<rect x="-288.1" y="235" class="st49" width="0.2" height="18"/>
							<rect x="-287.8" y="235" class="st50" width="0.2" height="18"/>
							<rect x="-287.6" y="235" class="st51" width="0.2" height="18"/>
							<rect x="-287.3" y="235" class="st52" width="0.2" height="18"/>
							<rect x="-287.1" y="235" class="st53" width="0.2" height="18"/>
							<rect x="-286.8" y="235" class="st54" width="0.2" height="18"/>
							<rect x="-286.6" y="235" class="st55" width="0.2" height="18"/>
							<rect x="-286.3" y="235" class="st56" width="0.2" height="18"/>
							<rect x="-286.1" y="235" class="st57" width="0.2" height="18"/>
							<rect x="-285.8" y="235" class="st58" width="0.2" height="18"/>
							<rect x="-285.6" y="235" class="st59" width="0.2" height="18"/>
							<rect x="-285.3" y="235" class="st60" width="0.2" height="18"/>
							<rect x="-285.1" y="235" class="st61" width="0.2" height="18"/>
							<rect x="-284.8" y="235" class="st62" width="0.2" height="18"/>
							<rect x="-284.6" y="235" class="st63" width="0.2" height="18"/>
							<rect x="-284.3" y="235" class="st64" width="0.2" height="18"/>
							<rect x="-284.1" y="235" class="st65" width="0.2" height="18"/>
							<rect x="-283.8" y="235" class="st66" width="0.2" height="18"/>
							<rect x="-283.6" y="235" class="st67" width="0.2" height="18"/>
							<rect x="-283.3" y="235" class="st68" width="0.2" height="18"/>
							<rect x="-283.1" y="235" class="st69" width="0.2" height="18"/>
							<rect x="-282.8" y="235" class="st70" width="0.2" height="18"/>
							<rect x="-282.6" y="235" class="st71" width="0.2" height="18"/>
							<rect x="-282.3" y="235" class="st72" width="0.2" height="18"/>
							<rect x="-282.1" y="235" class="st73" width="0.2" height="18"/>
							<rect x="-281.8" y="235" class="st74" width="0.2" height="18"/>
							<rect x="-281.6" y="235" class="st75" width="0.2" height="18"/>
							<rect x="-281.3" y="235" class="st76" width="0.2" height="18"/>
							<rect x="-281.1" y="235" class="st77" width="0.2" height="18"/>
							<rect x="-280.8" y="235" class="st78" width="0.2" height="18"/>
							<rect x="-280.6" y="235" class="st79" width="0.2" height="18"/>
							<rect x="-280.3" y="235" class="st80" width="0.2" height="18"/>
							<rect x="-280.1" y="235" class="st81" width="0.2" height="18"/>
							<rect x="-279.8" y="235" class="st82" width="0.2" height="18"/>
							<rect x="-279.6" y="235" class="st83" width="0.2" height="18"/>
							<rect x="-279.3" y="235" class="st84" width="0.2" height="18"/>
							<rect x="-279.1" y="235" class="st85" width="0.2" height="18"/>
							<rect x="-278.8" y="235" class="st86" width="0.2" height="18"/>
							<rect x="-278.6" y="235" class="st87" width="0.2" height="18"/>
							<rect x="-278.3" y="235" class="st88" width="0.2" height="18"/>
							<rect x="-278.1" y="235" class="st89" width="0.2" height="18"/>
							<rect x="-277.8" y="235" class="st90" width="0.2" height="18"/>
							<rect x="-277.6" y="235" class="st91" width="0.2" height="18"/>
							<rect x="-277.3" y="235" class="st92" width="0.2" height="18"/>
							<rect x="-277.1" y="235" class="st92" width="1.1" height="18"/>
						</g>
					</g>
				</g>
			</g>
		</g>
	</g>
</g>
</svg>
